<svg width="50" height="50" viewBox="0 0 50 50" xmlns="http://www.w3.org/2000/svg">
<g clip-path="url(#clip0_102086_1736)">
<path d="M18.6831 18.6733C20.1156 17.4295 21.8019 16.6653 23.5445 16.3669C21.9888 17.8962 21.0748 19.9611 20.9886 22.1409C20.9025 24.3206 21.6506 26.4512 23.0807 28.0985C24.5108 29.7458 26.5152 30.7859 28.6854 31.0068C30.8557 31.2277 33.0285 30.6128 34.7611 29.2874C34.2882 30.7554 33.4821 32.0942 32.4059 33.199C31.3297 34.3038 30.0125 35.1447 28.5573 35.6559C27.1021 36.1671 25.5484 36.3348 24.0177 36.1458C22.4869 35.9569 21.0206 35.4164 19.7335 34.5666C18.4463 33.7169 17.3731 32.5809 16.5979 31.2476C15.8226 29.9142 15.3663 28.4196 15.2646 26.8806C15.1629 25.3416 15.4185 23.7999 16.0116 22.3761C16.6046 20.9524 17.519 19.685 18.6831 18.6733Z" stroke="black" stroke-linecap="round" stroke-linejoin="round"/>
</g>
<defs>
<clipPath id="clip0_102086_1736">
<rect width="30" height="30" transform="translate(3 25.6689) rotate(-40.9671)"/>
</clipPath>
</defs>
</svg>
