<svg width="32" height="32" viewBox="0 0 32 32" fill="red" xmlns="http://www.w3.org/2000/svg">
<path d="M30.299 10.6853L21.8459 9.96604C21.4793 9.93484 21.1593 9.70478 21.0131 9.36711L17.7172 1.75813C17.0816 0.273331 14.913 0.273331 14.2773 1.75813L10.9817 9.38359C10.8353 9.72226 10.5144 9.95282 10.1467 9.98342L1.71426 10.6853C0.0690922 10.8136 -0.603929 12.83 0.648638 13.8932L7.04254 19.3255C7.3292 19.569 7.45494 19.9529 7.36796 20.3188L5.45326 28.3746C5.07936 29.951 6.818 31.1975 8.23882 30.3543L15.4877 26.0726C15.8019 25.887 16.1924 25.8873 16.5063 26.0735L23.7557 30.3727C25.1765 31.2159 26.9152 29.9694 26.5413 28.3929L24.6262 20.3186C24.5394 19.9527 24.6652 19.5691 24.9517 19.3257L31.3459 13.8932C32.5985 12.83 31.9441 10.8136 30.299 10.6853ZM16.5069 22.6459C16.1926 22.4596 15.8018 22.4594 15.4874 22.6455L10.9965 25.304C10.2369 25.7536 9.30975 25.0704 9.51436 24.2117L10.8374 18.6592L6.45854 14.9346C5.78149 14.3588 6.13604 13.2519 7.02168 13.1765L12.2221 12.7341C12.5896 12.7029 12.9101 12.4718 13.0559 12.1329L15.0802 7.42758C15.4269 6.62172 16.5692 6.62101 16.9169 7.42645L18.957 12.1523C19.103 12.4906 19.4232 12.7212 19.7903 12.7524L24.9915 13.1949C25.8772 13.2702 26.2317 14.3771 25.5547 14.953L21.6427 18.2804C21.3562 18.5241 21.2307 18.908 21.3179 19.2739L22.4983 24.2276C22.703 25.0866 21.775 25.7699 21.0155 25.3195L16.5069 22.6459Z" />
</svg>
